<svg 
 xmlns="http://www.w3.org/2000/svg"
 xmlns:xlink="http://www.w3.org/1999/xlink"
 width="18px" height="18px">
<path fill-rule="evenodd"  fill="currentColor"
 d="M16.936,10.200 L15.784,10.200 C15.518,10.200 15.237,10.418 15.161,10.685 L14.499,12.372 C14.370,12.616 14.420,12.977 14.608,13.174 L15.422,14.026 C15.610,14.223 15.610,14.547 15.422,14.744 L14.487,15.724 C14.298,15.921 13.991,15.921 13.802,15.724 L12.988,14.870 C12.799,14.674 12.454,14.623 12.221,14.756 L10.610,15.451 C10.354,15.529 10.146,15.822 10.146,16.101 L10.146,17.308 C10.146,17.587 9.928,17.816 9.661,17.816 L8.339,17.816 C8.072,17.816 7.854,17.587 7.854,17.308 L7.854,16.101 C7.854,15.822 7.645,15.529 7.389,15.451 L5.779,14.756 C5.546,14.623 5.200,14.674 5.012,14.870 L4.198,15.723 C4.010,15.919 3.701,15.919 3.513,15.724 L2.578,14.744 C2.389,14.547 2.389,14.223 2.578,14.026 L3.392,13.174 C3.580,12.977 3.629,12.616 3.501,12.372 L2.838,10.685 C2.762,10.418 2.482,10.200 2.216,10.200 L1.064,10.200 C0.797,10.200 0.580,9.971 0.580,9.692 L0.580,8.308 C0.580,8.029 0.797,7.800 1.064,7.800 L2.216,7.800 C2.482,7.800 2.762,7.582 2.838,7.314 L3.501,5.627 C3.629,5.383 3.580,5.021 3.392,4.824 L2.578,3.972 C2.389,3.775 2.389,3.453 2.578,3.255 L3.513,2.276 C3.701,2.079 4.010,2.079 4.198,2.276 L5.012,3.129 C5.200,3.325 5.546,3.377 5.779,3.242 L7.389,2.549 C7.645,2.469 7.854,2.176 7.854,1.897 L7.854,0.691 C7.854,0.411 8.072,0.184 8.339,0.184 L9.661,0.184 C9.928,0.184 10.146,0.411 10.146,0.691 L10.146,1.897 C10.146,2.176 10.354,2.469 10.610,2.549 L12.221,3.242 C12.455,3.377 12.800,3.325 12.988,3.129 L13.802,2.276 C13.991,2.079 14.298,2.079 14.487,2.276 L15.422,3.255 C15.610,3.453 15.610,3.775 15.422,3.972 L14.609,4.824 C14.420,5.021 14.370,5.383 14.499,5.627 L15.161,7.314 C15.237,7.582 15.518,7.800 15.784,7.800 L16.936,7.800 C17.203,7.800 17.420,8.029 17.420,8.308 L17.420,9.692 C17.420,9.971 17.203,10.200 16.936,10.200 ZM9.000,4.954 C6.866,4.954 5.136,6.766 5.136,8.999 C5.136,11.233 6.866,13.045 9.000,13.045 C11.134,13.045 12.864,11.233 12.864,8.999 C12.864,6.766 11.134,4.954 9.000,4.954 ZM9.000,11.186 C7.846,11.186 6.911,10.207 6.911,8.999 C6.911,7.791 7.846,6.814 9.000,6.814 C10.154,6.814 11.088,7.791 11.088,8.999 C11.088,10.207 10.154,11.186 9.000,11.186 Z"/>
</svg>
