<svg 
 xmlns="http://www.w3.org/2000/svg"
 xmlns:xlink="http://www.w3.org/1999/xlink"
 width="14px" height="18px">
<path fill-rule="evenodd"  fill="currentColor"
 d="M9.807,5.368 L4.066,5.368 L0.375,5.368 L0.375,3.691 L4.364,3.691 L4.886,0.756 L8.987,0.756 L9.509,3.691 L13.498,3.691 L13.498,5.368 L9.807,5.368 ZM7.618,2.434 L6.255,2.434 L6.032,3.691 L7.842,3.691 L7.618,2.434 ZM6.116,8.303 L6.116,14.173 L4.476,14.173 L4.476,8.303 L6.116,8.303 ZM9.397,8.303 L9.397,14.173 L7.757,14.173 L7.757,8.303 L9.397,8.303 ZM2.836,15.850 L11.038,15.850 L11.038,7.046 L12.678,7.046 L12.678,17.527 L1.196,17.527 L1.196,7.046 L2.836,7.046 L2.836,15.850 Z"/>
</svg>
