<svg 
 xmlns="http://www.w3.org/2000/svg"
 xmlns:xlink="http://www.w3.org/1999/xlink"
 width="16px" height="15px">
<path fill-rule="evenodd"  fill="currentColor"
 d="M12.980,13.000 L12.971,15.000 L10.000,12.029 L13.000,9.000 L12.990,11.000 L16.000,11.000 L16.000,13.000 L12.980,13.000 ZM7.663,9.358 L7.000,14.000 L1.000,14.000 C0.448,14.000 -0.000,13.553 -0.000,13.000 L-0.000,6.000 L-0.000,3.000 L-0.000,1.000 C-0.000,0.447 0.448,-0.000 1.000,-0.000 L7.000,-0.000 L9.000,3.000 L15.000,3.000 C15.552,3.000 16.000,3.447 16.000,4.000 L16.000,7.000 L10.382,7.000 C9.015,7.000 7.856,8.005 7.663,9.358 Z"/>
</svg>
