<svg 
 xmlns="http://www.w3.org/2000/svg"
 xmlns:xlink="http://www.w3.org/1999/xlink"
 width="16px" height="16px">
<path fill-rule="evenodd"  fill="rgb(0, 124, 238)"
 d="M15.000,8.000 L10.929,7.929 L9.078,6.078 C7.471,6.335 3.930,8.440 2.617,10.915 C2.643,10.822 4.657,4.658 11.016,4.522 L11.000,6.000 L15.000,3.000 L11.064,-0.000 L11.049,1.422 C8.221,1.766 6.305,3.361 5.047,5.000 L1.000,5.000 C0.447,5.000 -0.000,5.448 -0.000,6.000 L-0.000,8.000 L-0.000,10.000 L1.000,15.000 C1.000,15.553 1.447,16.000 2.000,16.000 L14.000,16.000 C14.552,16.000 15.000,15.553 15.000,15.000 L16.000,9.000 C16.000,8.448 15.552,8.000 15.000,8.000 Z"/>
</svg>
