<svg 
 xmlns="http://www.w3.org/2000/svg"
 xmlns:xlink="http://www.w3.org/1999/xlink"
 width="18px" height="20px">
<path fill-rule="evenodd"  fill="rgb(255, 255, 255)"
 d="M17.659,14.475 C17.659,14.579 17.603,14.676 17.513,14.728 L10.034,19.071 C9.837,19.185 9.591,19.043 9.591,18.815 L9.616,10.173 C9.616,10.069 9.672,9.972 9.762,9.920 L17.241,5.577 C17.438,5.463 17.684,5.605 17.683,5.832 L17.659,14.475 ZM9.231,9.209 C9.140,9.262 9.028,9.262 8.936,9.210 L1.403,4.864 C1.207,4.751 1.207,4.469 1.402,4.355 L8.884,0.011 C8.975,-0.042 9.088,-0.042 9.179,0.010 L16.712,4.356 C16.908,4.469 16.909,4.752 16.713,4.865 L9.231,9.209 ZM8.462,10.175 L8.438,18.820 C8.437,19.047 8.192,19.187 7.996,19.074 L0.463,14.729 C0.372,14.676 0.316,14.578 0.316,14.473 L0.340,5.827 C0.341,5.601 0.586,5.460 0.782,5.573 L8.315,9.919 C8.407,9.972 8.463,10.069 8.462,10.175 Z"/>
</svg>
