<svg 
 xmlns="http://www.w3.org/2000/svg"
 xmlns:xlink="http://www.w3.org/1999/xlink"
 width="14px" height="16px">
<path fill-rule="evenodd"  fill="rgb(0, 124, 238)"
 d="M13.000,16.000 L1.000,16.000 C0.447,16.000 -0.000,15.552 -0.000,15.000 L-0.000,1.000 C-0.000,0.447 0.447,-0.000 1.000,-0.000 L9.000,-0.000 L10.000,-0.000 C10.265,-0.000 10.519,0.106 10.707,0.293 L13.707,3.293 C13.895,3.481 14.000,3.734 14.000,4.000 L14.000,4.969 L14.000,5.000 L14.000,15.000 C14.000,15.552 13.552,16.000 13.000,16.000 ZM12.000,5.000 L9.000,5.000 L9.000,2.000 L2.000,2.000 L2.000,14.000 L12.000,14.000 L12.000,5.000 ZM6.262,9.903 L9.100,5.776 L10.500,6.739 L6.738,12.210 L3.862,10.405 L4.767,8.966 L6.262,9.903 Z"/>
</svg>
