<svg 
 xmlns="http://www.w3.org/2000/svg"
 xmlns:xlink="http://www.w3.org/1999/xlink"
 width="15px" height="16px">
<path fill-rule="evenodd"  fill="currentColor"
 d="M14.000,16.000 L12.000,16.000 L12.000,14.000 L13.000,14.000 L13.000,5.000 L10.000,5.000 L10.000,3.000 L10.000,2.000 L3.000,2.000 L3.000,4.000 L1.000,4.000 L1.000,1.000 C1.000,0.447 1.447,-0.000 2.000,-0.000 L10.000,-0.000 L11.000,-0.000 C11.264,-0.000 11.519,0.105 11.707,0.293 L14.707,3.293 C14.894,3.480 15.000,3.734 15.000,4.000 L15.000,4.969 L15.000,5.000 L15.000,15.000 C15.000,15.552 14.552,16.000 14.000,16.000 ZM11.000,13.000 L11.000,16.000 L8.000,16.000 L-0.000,8.000 L3.031,5.000 L11.000,13.000 ZM8.000,15.000 L10.000,15.000 L10.000,13.000 L8.000,13.000 L8.000,15.000 Z"/>
</svg>
