<svg 
 xmlns="http://www.w3.org/2000/svg"
 xmlns:xlink="http://www.w3.org/1999/xlink"
 width="16px" height="12px">
<path fill-rule="evenodd"  fill="rgb(0, 124, 238)"
 d="M8.000,12.000 C3.582,12.000 -0.000,6.000 -0.000,6.000 C-0.000,6.000 3.582,-0.000 8.000,-0.000 C12.418,-0.000 16.000,6.000 16.000,6.000 C16.000,6.000 12.418,12.000 8.000,12.000 ZM8.000,2.000 C5.791,2.000 4.000,3.791 4.000,6.000 C4.000,8.209 5.791,10.000 8.000,10.000 C10.209,10.000 12.000,8.209 12.000,6.000 C12.000,3.791 10.209,2.000 8.000,2.000 ZM8.000,8.000 C6.895,8.000 6.000,7.104 6.000,6.000 C6.000,4.895 6.895,4.000 8.000,4.000 C9.104,4.000 10.000,4.895 10.000,6.000 C10.000,7.104 9.104,8.000 8.000,8.000 Z"/>
</svg>
