<svg 
 xmlns="http://www.w3.org/2000/svg"
 xmlns:xlink="http://www.w3.org/1999/xlink"
 width="31px" height="27px">
<path fill-rule="evenodd"  fill="rgb(105, 147, 217)"
 d="M28.681,13.664 C27.449,14.660 25.831,15.055 24.273,14.740 L24.273,14.845 L2.564,14.845 C1.687,14.845 0.976,14.141 0.976,13.272 C0.976,12.404 1.687,11.700 2.564,11.700 L20.478,11.700 C19.618,9.746 20.039,7.472 21.542,5.946 C23.046,4.421 25.332,3.949 27.326,4.751 C29.320,5.554 30.625,7.472 30.627,9.603 C30.627,11.178 29.913,12.669 28.681,13.664 ZM14.742,8.555 L5.741,8.555 C4.864,8.555 4.153,7.851 4.153,6.983 C4.153,6.114 4.864,5.410 5.741,5.410 L10.640,5.410 C10.231,3.837 10.777,2.173 12.040,1.137 C13.304,0.101 15.058,-0.120 16.543,0.571 C18.028,1.261 18.977,2.738 18.978,4.362 C18.978,5.474 18.532,6.541 17.737,7.327 C16.943,8.113 15.866,8.555 14.742,8.555 ZM3.623,17.990 L22.155,17.990 C23.966,17.990 25.576,19.130 26.162,20.827 C26.748,22.523 26.179,24.401 24.747,25.498 C23.316,26.596 21.337,26.671 19.825,25.685 C18.312,24.699 17.600,22.871 18.053,21.135 L3.623,21.135 C2.746,21.135 2.035,20.431 2.035,19.562 C2.035,18.694 2.746,17.990 3.623,17.990 Z"/>
</svg>
