<svg 
 xmlns="http://www.w3.org/2000/svg"
 xmlns:xlink="http://www.w3.org/1999/xlink"
 width="21px" height="19px">
<path fill-rule="evenodd"  fill="currentColor"
 d="M20.332,9.741 L19.652,9.349 L19.875,8.963 L19.652,8.577 L20.332,8.185 L20.782,8.963 L20.332,9.741 ZM18.429,6.461 L19.109,6.069 L19.721,7.127 L19.041,7.519 L18.429,6.461 ZM17.207,4.345 L17.886,3.953 L18.498,5.011 L17.818,5.403 L17.207,4.345 ZM15.983,2.228 L16.663,1.836 L17.275,2.894 L16.595,3.286 L15.983,2.228 ZM15.149,0.784 L14.703,0.784 L14.703,0.000 L15.602,0.000 L16.052,0.778 L15.372,1.170 L15.149,0.784 ZM12.257,0.000 L13.480,0.000 L13.480,0.784 L12.257,0.784 L12.257,0.000 ZM9.811,0.000 L11.034,0.000 L11.034,0.784 L9.811,0.784 L9.811,0.000 ZM16.639,10.636 C16.650,10.771 16.592,10.902 16.484,10.986 L15.047,12.098 L18.151,16.108 C18.216,16.192 18.246,16.299 18.232,16.404 C18.221,16.509 18.165,16.605 18.081,16.670 L16.284,18.059 C16.212,18.115 16.125,18.143 16.039,18.143 C15.920,18.143 15.801,18.090 15.722,17.987 L12.613,13.977 L11.176,15.089 C11.068,15.171 10.926,15.194 10.798,15.150 C10.670,15.105 10.574,15.000 10.541,14.868 L8.574,6.852 C8.537,6.698 8.593,6.538 8.719,6.440 C8.845,6.344 9.015,6.330 9.155,6.405 L16.429,10.317 C16.548,10.380 16.627,10.501 16.639,10.636 ZM7.365,0.000 L8.588,0.000 L8.588,0.784 L7.365,0.784 L7.365,0.000 ZM7.960,17.927 L7.051,17.927 L7.051,17.143 L7.960,17.143 L7.960,17.927 ZM4.793,17.149 L5.473,16.757 L5.696,17.143 L6.142,17.143 L6.142,17.927 L5.243,17.927 L4.793,17.149 ZM5.473,1.170 L4.793,0.778 L5.243,0.000 L6.142,0.000 L6.142,0.784 L5.696,0.784 L5.473,1.170 ZM4.250,3.286 L3.570,2.894 L4.182,1.836 L4.861,2.228 L4.250,3.286 ZM3.027,5.403 L2.347,5.011 L2.958,3.953 L3.638,4.345 L3.027,5.403 ZM1.804,7.519 L1.124,7.127 L1.736,6.069 L2.415,6.461 L1.804,7.519 ZM0.969,8.963 L1.192,9.349 L0.513,9.741 L0.063,8.963 L0.513,8.185 L1.192,8.577 L0.969,8.963 ZM2.415,11.466 L1.736,11.858 L1.124,10.800 L1.804,10.408 L2.415,11.466 ZM3.638,13.582 L2.958,13.974 L2.347,12.916 L3.027,12.524 L3.638,13.582 ZM4.861,15.698 L4.181,16.090 L3.570,15.032 L4.250,14.640 L4.861,15.698 ZM9.543,17.927 L8.870,17.927 L8.870,17.143 L9.543,17.143 L9.543,17.927 ZM20.125,10.100 L19.789,10.682 L19.109,10.290 L19.445,9.708 L20.125,10.100 Z"/>
</svg>
