<svg 
 xmlns="http://www.w3.org/2000/svg"
 xmlns:xlink="http://www.w3.org/1999/xlink"
 width="15px" height="17px">
<path fill-rule="evenodd"  fill="currentColor"
 d="M14.236,14.529 C14.225,14.635 14.168,14.731 14.083,14.797 L12.267,16.202 C12.194,16.259 12.107,16.287 12.020,16.287 C11.899,16.287 11.779,16.233 11.699,16.129 L8.558,12.075 L7.105,13.199 C6.996,13.282 6.853,13.305 6.723,13.261 C6.593,13.216 6.496,13.110 6.464,12.975 L4.476,4.873 C4.438,4.717 4.494,4.555 4.622,4.456 C4.749,4.359 4.921,4.345 5.063,4.420 L12.413,8.375 C12.534,8.439 12.614,8.561 12.626,8.698 C12.637,8.835 12.578,8.967 12.470,9.051 L11.017,10.176 L14.154,14.229 C14.220,14.314 14.250,14.423 14.236,14.529 ZM2.232,4.462 C0.999,4.462 -0.000,3.463 -0.000,2.231 C-0.000,0.999 0.999,0.000 2.232,0.000 C3.465,0.000 4.464,0.999 4.464,2.231 C4.464,3.463 3.465,4.462 2.232,4.462 Z"/>
</svg>
