<svg 
 xmlns="http://www.w3.org/2000/svg"
 xmlns:xlink="http://www.w3.org/1999/xlink"
 width="23px" height="21px">
<path fill-rule="evenodd"  fill="rgb(24, 182, 182)"
 d="M6.745,20.175 L5.286,11.163 L20.770,8.666 L22.230,17.678 L6.745,20.175 ZM18.398,10.369 L17.107,10.577 L17.316,11.865 L18.606,11.657 L18.398,10.369 ZM17.189,8.186 L14.575,8.186 L13.268,8.186 L13.268,6.882 L13.268,4.273 L14.575,4.273 L14.575,6.882 L17.189,6.882 L18.496,6.882 L18.496,8.186 L18.496,8.547 L17.189,8.547 L17.189,8.186 ZM11.961,9.490 L9.346,9.490 L9.346,2.969 L4.118,2.969 L4.118,0.361 L17.189,0.361 L17.189,2.969 L11.961,2.969 L11.961,9.490 ZM5.247,19.096 L1.375,19.720 L0.333,13.283 L4.204,12.658 L5.247,19.096 Z"/>
</svg>
