<svg 
 xmlns="http://www.w3.org/2000/svg"
 xmlns:xlink="http://www.w3.org/1999/xlink"
 width="19px" height="19px">
<path fill-rule="evenodd"  fill="currentColor"
 d="M17.180,8.154 L17.180,6.435 L18.030,6.435 L18.030,8.154 L17.180,8.154 ZM17.180,2.995 L18.030,2.995 L18.030,4.715 L17.180,4.715 L17.180,2.995 ZM17.180,0.850 L16.754,0.850 L16.754,0.000 L18.030,0.000 L18.030,1.276 L17.180,1.276 L17.180,0.850 ZM13.689,11.732 L16.797,15.750 C16.862,15.834 16.892,15.942 16.878,16.047 C16.867,16.152 16.811,16.248 16.726,16.313 L14.927,17.706 C14.855,17.762 14.768,17.790 14.682,17.790 C14.563,17.790 14.444,17.736 14.364,17.633 L11.252,13.615 L9.813,14.729 C9.705,14.811 9.563,14.834 9.434,14.790 C9.306,14.746 9.210,14.640 9.177,14.507 L7.208,6.474 C7.170,6.320 7.226,6.159 7.352,6.061 C7.479,5.965 7.649,5.951 7.789,6.026 L15.072,9.946 C15.191,10.009 15.271,10.131 15.282,10.267 C15.294,10.402 15.236,10.533 15.128,10.617 L13.689,11.732 ZM13.315,0.000 L15.035,0.000 L15.035,0.850 L13.315,0.850 L13.315,0.000 ZM9.876,0.000 L11.595,0.000 L11.595,0.850 L9.876,0.850 L9.876,0.000 ZM6.434,0.000 L8.154,0.000 L8.154,0.850 L6.434,0.850 L6.434,0.000 ZM2.995,17.180 L4.715,17.180 L4.715,18.031 L2.995,18.031 L2.995,17.180 ZM2.995,0.000 L4.715,0.000 L4.715,0.850 L2.995,0.850 L2.995,0.000 ZM-0.001,16.755 L0.850,16.755 L0.850,17.180 L1.275,17.180 L1.275,18.031 L-0.001,18.031 L-0.001,16.755 ZM0.850,1.276 L-0.001,1.276 L-0.001,0.000 L1.275,0.000 L1.275,0.850 L0.850,0.850 L0.850,1.276 ZM0.850,4.715 L-0.001,4.715 L-0.001,2.995 L0.850,2.995 L0.850,4.715 ZM0.850,8.154 L-0.001,8.154 L-0.001,6.435 L0.850,6.435 L0.850,8.154 ZM0.850,11.594 L-0.001,11.594 L-0.001,9.874 L0.850,9.874 L0.850,11.594 ZM0.850,15.035 L-0.001,15.035 L-0.001,13.316 L0.850,13.316 L0.850,15.035 ZM8.154,18.031 L6.434,18.031 L6.434,17.180 L8.154,17.180 L8.154,18.031 Z"/>
</svg>
