<svg 
 xmlns="http://www.w3.org/2000/svg"
 xmlns:xlink="http://www.w3.org/1999/xlink"
 width="16px" height="16px">
<path fill-rule="evenodd"  fill="currentColor"
 d="M11.000,15.411 L11.000,13.188 C12.790,12.148 14.000,10.215 14.000,8.000 C14.000,4.691 11.309,2.000 8.000,2.000 C4.691,2.000 2.000,4.691 2.000,8.000 C2.000,10.215 3.209,12.148 5.000,13.188 L5.000,15.411 C2.072,14.222 -0.000,11.350 -0.000,8.000 C-0.000,3.589 3.589,-0.000 8.000,-0.000 C12.411,-0.000 16.000,3.589 16.000,8.000 C16.000,11.350 13.928,14.222 11.000,15.411 ZM8.000,4.000 C10.206,4.000 12.000,5.795 12.000,8.000 C12.000,9.473 11.190,10.750 10.000,11.443 L10.000,8.000 C10.000,6.897 9.102,6.000 8.000,6.000 C6.897,6.000 6.000,6.897 6.000,8.000 L6.000,11.443 C4.810,10.750 4.000,9.473 4.000,8.000 C4.000,5.795 5.794,4.000 8.000,4.000 ZM7.000,9.000 C7.000,8.447 7.448,8.000 8.000,8.000 C8.552,8.000 9.000,8.447 9.000,9.000 L9.000,14.000 L10.000,14.000 L10.000,16.000 L9.000,16.000 L7.000,16.000 L6.000,16.000 L6.000,14.000 L7.000,14.000 L7.000,9.000 Z"/>
</svg>
