<svg 
 xmlns="http://www.w3.org/2000/svg"
 xmlns:xlink="http://www.w3.org/1999/xlink"
 width="21px" height="22px">
<path fill-rule="evenodd"  fill="currentColor"
 d="M20.669,13.887 L20.301,14.611 L0.095,14.611 C4.802,13.974 9.634,6.333 6.763,0.044 C10.787,3.445 16.974,8.314 19.943,10.635 C20.940,11.413 21.239,12.767 20.669,13.887 ZM1.316,9.395 C0.704,9.165 0.711,7.689 1.333,6.098 C1.954,4.506 2.954,3.404 3.566,3.634 C4.177,3.865 4.171,5.342 3.549,6.933 C2.928,8.524 1.928,9.627 1.316,9.395 ZM17.607,21.233 L15.231,21.233 C14.210,21.233 13.278,20.666 12.821,19.769 L10.872,15.936 L17.607,15.936 L17.607,21.233 Z"/>
</svg>
