<svg 
 xmlns="http://www.w3.org/2000/svg"
 xmlns:xlink="http://www.w3.org/1999/xlink"
 width="16px" height="16px">
<path fill-rule="evenodd"  fill="rgb(24, 182, 182)"
 d="M-0.000,16.000 L-0.000,-0.000 L16.000,-0.000 L16.000,16.000 L-0.000,16.000 ZM14.000,2.000 L2.000,2.000 L2.000,14.000 L14.000,14.000 L14.000,2.000 ZM6.000,6.000 L4.000,6.000 L4.000,4.000 L6.000,4.000 L6.000,6.000 ZM6.000,9.000 L4.000,9.000 L4.000,7.000 L6.000,7.000 L6.000,9.000 ZM6.000,12.000 L4.000,12.000 L4.000,10.000 L6.000,10.000 L6.000,12.000 ZM9.000,6.000 L7.000,6.000 L7.000,4.000 L9.000,4.000 L9.000,6.000 ZM9.000,9.000 L7.000,9.000 L7.000,7.000 L9.000,7.000 L9.000,9.000 ZM9.000,12.000 L7.000,12.000 L7.000,10.000 L9.000,10.000 L9.000,12.000 ZM12.000,6.000 L10.000,6.000 L10.000,4.000 L12.000,4.000 L12.000,6.000 ZM12.000,9.000 L10.000,9.000 L10.000,7.000 L12.000,7.000 L12.000,9.000 ZM12.000,12.000 L10.000,12.000 L10.000,10.000 L12.000,10.000 L12.000,12.000 Z"/>
</svg>
