<svg 
 xmlns="http://www.w3.org/2000/svg"
 xmlns:xlink="http://www.w3.org/1999/xlink"
 width="17px" height="22px">
<path fill-rule="evenodd"  fill="currentColor"
 d="M9.981,17.251 L9.981,18.683 L12.620,18.683 L12.620,21.312 L9.981,21.312 L7.341,21.312 L4.701,21.312 L4.701,18.683 L7.341,18.683 L7.341,17.251 C3.602,16.621 0.742,13.381 0.742,9.481 L3.381,9.481 C3.381,12.380 5.749,14.739 8.661,14.739 C11.572,14.739 13.940,12.380 13.940,9.481 L16.580,9.481 C16.580,13.381 13.720,16.621 9.981,17.251 ZM8.840,13.421 C6.572,13.520 4.701,11.717 4.701,9.481 L4.701,4.223 C4.701,1.987 6.572,0.184 8.840,0.283 C11.001,0.378 12.620,2.320 12.620,5.001 L12.620,9.230 C12.620,11.384 11.001,13.326 8.840,13.421 Z"/>
</svg>
