<svg 
 xmlns="http://www.w3.org/2000/svg"
 xmlns:xlink="http://www.w3.org/1999/xlink"
 width="17px" height="28px">
<path fill-rule="evenodd"  fill="rgb(105, 147, 217)"
 d="M8.978,17.244 L8.978,10.003 C8.978,9.562 8.620,9.204 8.180,9.204 L8.117,9.204 C7.687,9.204 7.342,9.552 7.342,9.979 L7.342,17.244 C6.151,17.589 5.279,18.654 5.279,19.924 C5.279,21.477 6.568,22.734 8.161,22.734 C9.753,22.734 11.041,21.474 11.041,19.924 C11.038,18.654 10.166,17.591 8.978,17.244 L8.978,17.244 ZM13.217,14.036 C13.038,13.888 12.933,13.688 12.933,13.482 L12.933,5.295 C12.933,2.720 10.791,0.627 8.159,0.627 C5.527,0.627 3.385,2.720 3.385,5.295 L3.385,13.250 C3.385,13.595 3.243,13.914 2.998,14.123 C1.272,15.580 0.284,17.697 0.284,19.927 C0.284,24.168 3.817,27.621 8.161,27.621 C12.506,27.621 16.039,24.171 16.039,19.927 C16.036,17.644 15.009,15.496 13.217,14.036 L13.217,14.036 ZM8.159,25.178 C5.182,25.178 2.763,22.821 2.763,19.924 C2.763,18.119 3.706,16.458 5.284,15.485 L5.667,15.251 C5.790,15.174 5.867,15.037 5.867,14.892 L5.867,5.295 C5.867,4.066 6.897,3.067 8.161,3.067 C9.426,3.067 10.456,4.066 10.456,5.295 L10.456,14.892 C10.456,15.037 10.533,15.174 10.656,15.251 L11.038,15.485 C12.617,16.458 13.557,18.116 13.557,19.924 C13.555,22.821 11.133,25.178 8.159,25.178 L8.159,25.178 Z"/>
</svg>
