<svg 
 xmlns="http://www.w3.org/2000/svg"
 xmlns:xlink="http://www.w3.org/1999/xlink"
 width="20px" height="26px">
<path fill-rule="evenodd"  fill="rgb(105, 147, 217)"
 d="M10.566,1.395 L10.019,0.775 L9.471,1.395 C9.110,1.804 0.661,11.455 0.661,16.440 C0.661,21.599 4.860,25.799 10.019,25.799 C15.177,25.799 19.376,21.599 19.376,16.440 C19.376,11.455 10.927,1.804 10.566,1.395 L10.566,1.395 ZM10.019,2.993 C12.649,6.095 17.917,13.013 17.917,16.440 C17.917,16.597 17.910,16.750 17.902,16.907 C15.217,18.491 13.984,17.841 10.019,15.363 C7.334,13.685 4.652,12.670 3.007,13.287 C4.619,9.759 8.056,5.310 10.019,2.993 L10.019,2.993 Z"/>
</svg>
