<svg 
 xmlns="http://www.w3.org/2000/svg"
 xmlns:xlink="http://www.w3.org/1999/xlink"
 width="29px" height="31px">
<path fill-rule="evenodd"  fill="rgb(105, 147, 217)"
 d="M27.870,27.187 C26.890,28.723 25.372,29.786 23.593,30.180 C23.024,30.305 22.461,29.946 22.335,29.377 C22.275,29.104 22.325,28.818 22.476,28.582 C22.626,28.346 22.864,28.180 23.137,28.120 C24.358,27.853 25.422,27.109 26.091,26.053 C26.766,25.000 26.992,23.722 26.719,22.502 L26.718,22.501 C26.593,21.933 26.952,21.370 27.520,21.245 L27.521,21.244 C27.794,21.184 28.080,21.235 28.316,21.385 C28.552,21.536 28.718,21.774 28.778,22.047 C29.172,23.825 28.849,25.651 27.870,27.187 ZM21.424,26.750 C20.855,26.876 20.292,26.517 20.166,25.948 C20.040,25.379 20.399,24.816 20.968,24.690 C22.336,24.388 23.202,23.029 22.900,21.661 C22.786,21.097 23.144,20.545 23.706,20.421 C24.268,20.297 24.826,20.645 24.960,21.205 C25.513,23.709 23.927,26.196 21.424,26.750 ZM22.012,16.346 L10.122,30.871 L14.054,21.275 L8.940,17.087 L22.316,0.746 L18.281,13.290 L22.012,16.346 ZM8.918,9.323 C8.247,9.388 7.630,9.718 7.204,10.240 C6.775,10.760 6.572,11.430 6.640,12.100 L6.640,12.100 C6.698,12.680 6.274,13.197 5.694,13.254 C5.115,13.311 4.598,12.887 4.541,12.308 C4.416,11.080 4.788,9.853 5.573,8.902 C6.353,7.946 7.484,7.341 8.712,7.224 L8.713,7.224 C8.991,7.197 9.269,7.281 9.485,7.459 C9.701,7.636 9.837,7.892 9.865,8.170 L9.865,8.171 C9.922,8.751 9.498,9.267 8.918,9.323 ZM7.199,5.883 C4.615,6.138 2.719,8.449 2.973,11.034 C3.017,11.413 2.854,11.787 2.545,12.011 C2.236,12.235 1.831,12.275 1.484,12.115 C1.138,11.955 0.904,11.621 0.874,11.241 C0.506,7.498 3.250,4.153 6.992,3.784 C7.571,3.727 8.088,4.150 8.145,4.730 C8.173,5.008 8.088,5.286 7.911,5.503 C7.734,5.719 7.478,5.856 7.199,5.883 Z"/>
</svg>
