<svg 
 xmlns="http://www.w3.org/2000/svg"
 xmlns:xlink="http://www.w3.org/1999/xlink"
 width="23px" height="29px">
<path fill-rule="evenodd"  fill="rgb(105, 147, 217)"
 d="M22.875,16.760 C22.875,23.163 17.755,28.367 11.456,28.367 C5.157,28.367 0.037,23.179 0.037,16.760 C0.037,12.692 2.100,9.096 5.234,7.030 L2.116,3.860 L3.791,2.157 L7.453,5.879 C8.306,5.564 9.191,5.343 10.106,5.232 L10.106,2.520 L8.942,2.520 L8.942,-0.003 L13.954,-0.003 L13.954,2.520 L12.790,2.520 L12.790,5.248 C13.721,5.359 14.605,5.579 15.443,5.895 L19.120,2.157 L20.796,3.860 L17.677,7.030 C20.812,9.112 22.875,12.692 22.875,16.760 ZM11.456,8.796 C7.112,8.796 3.605,12.360 3.605,16.760 C3.605,21.176 7.127,24.740 11.456,24.740 C15.785,24.740 19.307,21.176 19.307,16.760 C19.307,12.360 15.785,8.796 11.456,8.796 ZM11.456,9.538 L12.763,19.719 L10.148,19.719 L11.456,9.538 Z"/>
</svg>
