<svg 
 xmlns="http://www.w3.org/2000/svg"
 xmlns:xlink="http://www.w3.org/1999/xlink"
 width="14px" height="15px">
<path fill-rule="evenodd"  fill="rgb(0, 255, 255)"
 d="M13.988,12.890 L10.243,9.191 C10.734,8.377 11.022,7.429 11.022,6.414 C11.022,3.411 8.548,0.969 5.508,0.969 C2.468,0.969 -0.006,3.411 -0.006,6.414 C-0.006,9.417 2.468,11.859 5.508,11.859 C6.429,11.859 7.296,11.632 8.060,11.236 L11.861,14.989 L13.988,12.890 ZM0.996,6.414 C0.996,3.958 3.020,1.959 5.508,1.959 C7.995,1.959 10.019,3.958 10.019,6.414 C10.019,8.871 7.995,10.869 5.508,10.869 C3.020,10.869 0.996,8.871 0.996,6.414 Z"/>
</svg>
