<svg 
 xmlns="http://www.w3.org/2000/svg"
 xmlns:xlink="http://www.w3.org/1999/xlink"
 width="16px" height="16px">
<path fill-rule="evenodd"  fill="currentColor"
 d="M14.981,15.998 L0.994,15.998 C0.440,15.998 -0.009,15.549 -0.009,14.995 L-0.009,1.007 C-0.009,0.453 0.440,0.004 0.994,0.004 L14.981,0.004 C15.535,0.004 15.984,0.453 15.984,1.007 L15.984,14.995 C15.984,15.549 15.535,15.998 14.981,15.998 ZM5.953,13.991 L13.978,13.991 L13.978,5.966 L5.953,5.966 L5.953,13.991 ZM3.947,13.991 L3.947,5.966 L1.997,5.966 L1.997,13.991 L3.947,13.991 ZM1.997,2.010 L1.997,3.960 L13.978,3.960 L13.978,2.010 L1.997,2.010 Z"/>
</svg>
