<svg 
 xmlns="http://www.w3.org/2000/svg"
 xmlns:xlink="http://www.w3.org/1999/xlink"
 width="11px" height="19px">
<defs>
<filter id="Filter_0">
                <feFlood flood-color="rgb(11, 161, 248)" flood-opacity="1" result="floodOut" />
                <feComposite operator="atop" in="floodOut" in2="SourceGraphic" result="compOut" />
                <feBlend mode="normal" in="compOut" in2="SourceGraphic" />
            </filter>

</defs>
<g filter="url(#Filter_0)">
<path fill-rule="evenodd"  fill="rgb(0, 0, 0)"
 d="M6.042,8.880 L6.042,5.785 L8.135,5.785 C8.359,5.785 8.540,5.603 8.540,5.380 C8.540,5.156 8.359,4.975 8.135,4.975 L6.042,4.975 L6.042,2.706 L8.135,2.706 C8.359,2.706 8.540,2.525 8.540,2.301 C8.540,2.078 8.359,1.896 8.135,1.896 L6.042,1.896 L6.042,0.843 C6.042,0.620 5.861,0.438 5.637,0.438 C5.414,0.438 5.232,0.620 5.232,0.843 L5.232,8.880 C2.786,9.087 0.859,11.143 0.859,13.642 C0.859,16.278 3.002,18.422 5.637,18.422 C8.272,18.422 10.416,16.278 10.416,13.642 C10.416,11.143 8.488,9.087 6.042,8.880 L6.042,8.880 ZM5.637,17.612 C3.449,17.612 1.669,15.831 1.669,13.642 C1.669,11.454 3.449,9.673 5.637,9.673 C7.826,9.673 9.606,11.454 9.606,13.642 C9.606,15.831 7.826,17.612 5.637,17.612 L5.637,17.612 Z"/>
</g>
</svg>
