<svg 
 xmlns="http://www.w3.org/2000/svg"
 xmlns:xlink="http://www.w3.org/1999/xlink"
 width="20px" height="18px">
<path fill-rule="evenodd"  fill="currentColor"
 d="M16.804,8.667 C16.988,8.970 17.099,9.321 17.099,9.700 L17.099,15.369 C17.099,16.473 16.204,17.369 15.099,17.369 L11.997,17.369 C12.163,17.083 12.265,16.756 12.265,16.402 L12.265,13.502 C12.265,12.434 11.399,11.568 10.331,11.568 C9.264,11.568 8.398,12.434 8.398,13.502 L8.398,16.402 C8.398,16.756 8.500,17.083 8.666,17.369 L5.564,17.369 C4.459,17.369 3.564,16.473 3.564,15.369 L3.564,9.700 C3.564,9.321 3.675,8.970 3.859,8.667 L0.663,8.667 L10.331,0.932 L20.000,8.667 L16.804,8.667 Z"/>
</svg>
