<svg 
 xmlns="http://www.w3.org/2000/svg"
 xmlns:xlink="http://www.w3.org/1999/xlink"
 width="16px" height="16px">
<path fill-rule="evenodd"  fill="currentColor"
 d="M5.000,-0.000 L4.000,-0.000 C3.448,-0.000 3.000,0.447 3.000,1.000 L3.000,3.000 L3.000,11.000 L4.000,11.000 L5.000,11.000 L13.000,11.000 L13.000,14.000 L12.000,14.000 L12.000,12.000 L-0.000,12.000 L-0.000,14.000 C-0.000,15.104 0.895,16.000 2.000,16.000 L13.000,16.000 C13.552,16.000 14.000,15.553 14.000,15.000 L14.000,6.000 L14.000,5.000 L14.000,4.000 L14.000,2.000 L15.000,2.000 L15.000,4.000 L16.000,4.000 L16.000,1.000 C16.000,0.447 15.552,-0.000 15.000,-0.000 L5.000,-0.000 ZM10.000,8.000 L5.000,8.000 L5.000,7.000 L10.000,7.000 L10.000,8.000 ZM12.000,6.000 L10.000,6.000 L5.000,6.000 L5.000,5.000 L12.000,5.000 L12.000,6.000 ZM12.000,4.000 L5.000,4.000 L5.000,3.000 L12.000,3.000 L12.000,4.000 Z"/>
</svg>
