<svg 
 xmlns="http://www.w3.org/2000/svg"
 xmlns:xlink="http://www.w3.org/1999/xlink"
 width="15px" height="17px">
<path fill-rule="evenodd"  fill="currentColor"
 d="M13.834,16.981 L1.834,16.981 C1.281,16.981 0.834,16.533 0.834,15.981 L0.834,1.981 C0.834,1.428 1.281,0.981 1.834,0.981 L13.834,0.981 C14.387,0.981 14.834,1.428 14.834,1.981 L14.834,15.981 C14.834,16.533 14.387,16.981 13.834,16.981 ZM12.834,2.981 L2.834,2.981 L2.834,14.981 L12.834,14.981 L12.834,2.981 ZM10.834,5.981 L4.834,5.981 L4.834,4.981 L10.834,4.981 L10.834,5.981 ZM10.834,8.981 L4.834,8.981 L4.834,7.981 L10.834,7.981 L10.834,8.981 ZM8.834,11.981 L4.834,11.981 L4.834,10.981 L8.834,10.981 L8.834,11.981 Z"/>
</svg>
