<svg 
 xmlns="http://www.w3.org/2000/svg"
 xmlns:xlink="http://www.w3.org/1999/xlink"
 width="16px" height="17px">
<path fill-rule="evenodd"  fill="currentColor"
 d="M0.479,16.245 L0.479,0.245 L10.832,0.245 L15.479,4.826 L15.479,16.245 L0.479,16.245 ZM13.479,6.245 L9.479,6.245 L9.479,2.245 L2.479,2.245 L2.479,14.245 L13.479,14.245 L13.479,6.245 ZM6.479,6.245 L4.479,6.245 L4.479,4.245 L6.479,4.245 L6.479,6.245 ZM6.479,10.245 L4.479,10.245 L4.479,8.245 L6.479,8.245 L6.479,10.245 ZM6.479,13.245 L4.479,13.245 L4.479,11.245 L6.479,11.245 L6.479,13.245 ZM11.479,10.245 L7.479,10.245 L7.479,9.245 L11.479,9.245 L11.479,10.245 ZM11.479,13.245 L7.479,13.245 L7.479,12.245 L11.479,12.245 L11.479,13.245 Z"/>
</svg>
