<svg 
 xmlns="http://www.w3.org/2000/svg"
 xmlns:xlink="http://www.w3.org/1999/xlink"
 width="17px" height="17px">
<path fill-rule="evenodd"  fill="currentColor"
 d="M8.962,16.829 C4.551,16.829 0.962,13.240 0.962,8.829 C0.962,4.418 4.551,0.829 8.962,0.829 C13.373,0.829 16.962,4.418 16.962,8.829 C16.962,13.240 13.373,16.829 8.962,16.829 ZM8.962,2.829 C5.654,2.829 2.962,5.520 2.962,8.829 C2.962,12.137 5.654,14.829 8.962,14.829 C12.271,14.829 14.962,12.137 14.962,8.829 C14.962,5.520 12.271,2.829 8.962,2.829 ZM7.962,8.829 L9.962,8.829 L9.962,12.829 L7.962,12.829 L7.962,8.829 ZM7.962,4.829 L9.962,4.829 L9.962,6.829 L7.962,6.829 L7.962,4.829 Z"/>
</svg>
